<svg id="Layer_1" data-name="Layer 1" xmlns="http://www.w3.org/2000/svg" viewBox="0 0 540.17 478.47"><defs><style>.cls-1{fill:none;stroke:#fafafa;stroke-miterlimit:10;stroke-width:7px;}</style></defs><g id="LIME"><path class="cls-1" d="M810.74,1253c-98.16-135.79-72-322.31,58.46-416.6S1185,775.71,1283.11,911.5Z" transform="translate(-747.82 -779.36)"/><path class="cls-1" d="M829.33,1239.5C751.89,1132.36,758.46,991,837.43,898a260.19,260.19,0,0,1,100.26-72.47c113-45.83,249.38-7.72,326.82,99.42Z" transform="translate(-747.82 -779.36)"/><path class="cls-1" d="M864.89,929.33c-6.39-5.19-7.2-14.67-1.72-20.42A261.15,261.15,0,0,1,940,853.38c7.18-3.4,15.93.34,18.85,8l61.4,161.78a13.31,13.31,0,0,1-21,15.17Z" transform="translate(-747.82 -779.36)"/><path class="cls-1" d="M984.38,853.52a13.26,13.26,0,0,1,10.43-17.08,267.28,267.28,0,0,1,48-3.24,273.4,273.4,0,0,1,48.14,5.32,14.37,14.37,0,0,1,11,17.55L1059,1019.9c-3.49,13.36-22.31,12.95-26.25-.57Z" transform="translate(-747.82 -779.36)"/><path class="cls-1" d="M1127.76,865.08a13.15,13.15,0,0,1,18.59-7.23,287.61,287.61,0,0,1,41.79,26,291.17,291.17,0,0,1,36.93,32.87c5.68,6,5.18,15.44-1,20.35l-130.85,103.3c-10.66,8.42-26.07-3.1-21.5-16.08Z" transform="translate(-747.82 -779.36)"/><path class="cls-1" d="M853.58,1204.87c-6.62,4.37-15.75,1.88-19.65-5.39a290.68,290.68,0,0,1-31.24-93.22,13.15,13.15,0,0,1,12.69-15.38l168.8-3.32c13.76-.27,19.87,18,8.53,25.46Z" transform="translate(-747.82 -779.36)"/><path class="cls-1" d="M814.93,1063.53a14.37,14.37,0,0,1-13.21-16,272.94,272.94,0,0,1,10-47.38,267.55,267.55,0,0,1,18.13-44.55,13.26,13.26,0,0,1,19.49-4.54l142.27,97.94c11.6,8,6.09,26-7.69,25.11Z" transform="translate(-747.82 -779.36)"/></g></svg>