<?xml version="1.0" standalone="no"?>
<!DOCTYPE svg PUBLIC "-//W3C//DTD SVG 20010904//EN"
 "http://www.w3.org/TR/2001/REC-SVG-20010904/DTD/svg10.dtd">
<svg version="1.0" xmlns="http://www.w3.org/2000/svg"
 width="256.000000pt" height="256.000000pt" viewBox="0 0 256.000000 256.000000"
 preserveAspectRatio="xMidYMid meet">
<metadata>
Created by potrace 1.14, written by Peter Selinger 2001-2017
</metadata>
<g transform="translate(0.000000,256.000000) scale(0.100000,-0.100000)"
fill="#000000" stroke="none">
<path d="M1259 2415 c-2 -1 -35 -6 -72 -9 -141 -14 -346 -81 -483 -159 -235
-133 -425 -329 -546 -563 -168 -324 -199 -748 -82 -1103 49 -145 194 -421 223
-421 5 0 175 120 378 267 202 146 393 285 425 307 31 23 125 91 210 152 84 61
399 289 701 507 l547 396 -59 73 c-66 82 -188 202 -272 265 -157 120 -404 230
-591 263 -34 6 -74 13 -88 16 -31 6 -286 14 -291 9z m411 -68 c244 -58 466
-175 643 -338 88 -80 187 -194 187 -213 0 -7 -12 -18 -27 -25 -26 -12 -29 -10
-62 31 -19 24 -71 79 -116 123 -310 304 -757 438 -1183 356 -139 -27 -317
-103 -445 -189 -477 -320 -674 -944 -476 -1509 34 -96 95 -222 142 -292 l30
-44 -23 -19 c-31 -25 -35 -24 -68 25 -25 36 -104 183 -107 197 0 3 -6 14 -12
25 -22 43 -80 236 -98 335 -11 56 -15 361 -5 410 4 25 10 59 13 75 17 108 66
251 122 361 69 134 134 223 245 335 203 205 465 339 733 376 23 3 44 7 46 9 3
3 84 3 180 0 142 -3 196 -9 281 -29z m-34 -105 c179 -42 317 -102 468 -205 91
-63 228 -190 285 -264 l31 -41 -107 -78 c-501 -361 -549 -390 -220 -134 201
157 217 177 193 233 -35 83 -354 317 -431 317 -42 0 -69 -39 -108 -150 -19
-58 -63 -184 -97 -280 -127 -358 -140 -401 -134 -425 7 -29 34 -54 68 -63 24
-7 13 -17 -136 -124 -90 -64 -182 -130 -205 -147 l-41 -31 3 33 c2 24 -4 43
-20 63 l-23 29 -224 -2 c-517 -6 -640 -12 -661 -31 -11 -9 -23 -26 -27 -36
-16 -43 42 -264 106 -405 73 -158 94 -159 306 -14 115 79 315 207 303 195 -5
-6 -73 -56 -150 -111 -77 -55 -144 -103 -150 -108 -5 -5 -68 -50 -140 -102
l-129 -93 -23 28 c-29 37 -113 202 -141 276 -23 61 -56 186 -69 258 -9 56 -10
341 -1 397 45 263 152 483 325 664 177 185 396 307 648 358 126 26 373 22 501
-7z m384 -296 c111 -74 240 -195 240 -225 0 -24 -12 -34 -370 -316 -284 -223
-307 -236 -334 -193 -11 19 1 60 103 348 29 80 70 197 92 260 23 63 48 134 56
158 22 61 45 67 113 29 30 -17 75 -44 100 -61z m-180 -630 c0 -2 -8 -10 -17
-17 -16 -13 -17 -12 -4 4 13 16 21 21 21 13z m-681 -390 c33 -40 17 -54 -339
-290 -404 -268 -369 -259 -437 -106 -69 156 -116 346 -94 380 9 12 46 15 213
18 112 1 210 4 217 5 8 1 108 3 221 5 174 3 209 1 219 -12z"/>
<path d="M1200 2168 c-69 -11 -95 -35 -93 -86 1 -20 53 -215 117 -432 101
-344 119 -398 142 -417 15 -11 32 -20 38 -18 6 2 24 6 39 10 37 8 43 23 112
290 31 121 74 285 95 365 21 80 41 158 44 174 7 38 -16 81 -51 94 -74 29 -313
40 -443 20z m319 -33 c89 -9 130 -23 136 -48 4 -13 -23 -134 -60 -277 -37
-140 -68 -262 -70 -270 -21 -95 -76 -274 -86 -281 -47 -29 -64 -1 -124 206
-31 105 -58 197 -60 206 -2 8 -27 94 -55 190 -60 200 -68 240 -47 257 27 23
222 32 366 17z"/>
<path d="M829 2042 c-136 -76 -288 -203 -308 -255 -20 -52 6 -81 256 -282 129
-104 278 -225 331 -267 104 -85 130 -93 176 -57 39 31 34 66 -43 265 -37 99
-104 274 -147 389 -45 121 -88 220 -101 233 -33 33 -68 27 -164 -26z m176 -78
c57 -141 275 -723 275 -733 0 -6 -11 -18 -25 -27 -24 -16 -27 -15 -63 11 -20
16 -41 33 -47 39 -5 6 -35 30 -65 53 -30 23 -64 50 -75 60 -11 10 -78 65 -150
122 -71 58 -144 116 -160 130 -17 14 -51 42 -75 61 -62 50 -70 59 -70 80 0 60
348 311 403 291 13 -5 31 -35 52 -87z"/>
<path d="M394 1613 c-41 -42 -115 -244 -139 -381 -29 -163 -14 -176 210 -187
121 -5 262 -14 330 -20 28 -2 106 -7 175 -11 69 -4 132 -8 140 -9 56 -8 103
46 88 102 -9 35 -29 50 -494 368 -239 164 -270 178 -310 138z m147 -70 c46
-31 170 -116 274 -188 105 -72 222 -153 260 -180 99 -67 112 -87 79 -120 -16
-16 -90 -16 -274 0 -67 5 -187 13 -300 20 -326 19 -305 12 -296 104 15 160
114 421 160 421 8 0 51 -26 97 -57z"/>
</g>
</svg>
