<svg id="Layer_1" data-name="Layer 1" xmlns="http://www.w3.org/2000/svg" viewBox="0 0 93.73 59.23"><defs><style>.cls-1{fill:#d0ff14;fill-rule:evenodd;}</style></defs><path class="cls-1" d="M64.09,23.77H87.91v6.79H64.09V23.77ZM66.53,60s30.17-.29,30.17,0c0,0,3.33-24.49-20-24.9-13.73-.24-22,9-22.67,22.58C53.65,71.15,62.68,79,75.23,79.58c9.82.46,21.44-3.44,21.06-15.16h-10C86.77,72.23,66,74.86,66.53,60Zm-.2-7.55c2.53-12.77,19.29-11.85,19.57,0ZM3.13,20.38H35A14.8,14.8,0,0,1,49.7,35.13h0a14.91,14.91,0,0,1-.89,5.06c-1,2.63-3,5.16-7.78,6.46,7.38,1.12,10.64,6.81,10.64,13.77v1.76a15.94,15.94,0,0,1-15.91,15.9H3.13V20.38Zm13.06,9.93v13.4H32.08a5.54,5.54,0,0,0,5.52-5.52V35.83a5.54,5.54,0,0,0-5.52-5.52Zm0,22.05V68.14H32.62a7,7,0,0,0,6.92-6.92V59.28a6.94,6.94,0,0,0-6.92-6.92Z" transform="translate(-3.13 -20.38)"/></svg>