<svg id="Layer_1" data-name="Layer 1" xmlns="http://www.w3.org/2000/svg" viewBox="0 0 88.22 88.21"><defs><style>.cls-1{fill:#d0ff14;}</style></defs><path class="cls-1" d="M73.36,21.64a5.18,5.18,0,1,0,5.17,5.18h0a5.16,5.16,0,0,0-5.12-5.18Z" transform="translate(-5.89 -5.9)"/><path class="cls-1" d="M50.36,28.28A21.71,21.71,0,1,0,72.08,50,21.71,21.71,0,0,0,50.36,28.28Zm0,35.64A13.92,13.92,0,1,1,64.28,50h0A13.94,13.94,0,0,1,50.36,63.92Z" transform="translate(-5.89 -5.9)"/><path class="cls-1" d="M67.61,94.11H32.39a26.53,26.53,0,0,1-26.5-26.5V32.4A26.53,26.53,0,0,1,32.39,5.9H67.61a26.53,26.53,0,0,1,26.5,26.5V67.62A26.54,26.54,0,0,1,67.61,94.11ZM32.39,14.19A18.22,18.22,0,0,0,14.19,32.4V67.62a18.22,18.22,0,0,0,18.2,18.2H67.61a18.22,18.22,0,0,0,18.2-18.2V32.4a18.22,18.22,0,0,0-18.2-18.2Z" transform="translate(-5.89 -5.9)"/></svg>