<svg id="Layer_1" data-name="Layer 1" xmlns="http://www.w3.org/2000/svg" viewBox="0 0 93.28 76.8"><defs><style>.cls-1{fill:#d0ff14;}</style></defs><path class="cls-1" d="M96.25,20.83a38.3,38.3,0,0,1-9.44,2.69c1.52-.25,3.74-3,4.64-4.11a17.14,17.14,0,0,0,3.13-5.71.39.39,0,0,0,0-.49.55.55,0,0,0-.5,0A48.12,48.12,0,0,1,82.9,17.54a.76.76,0,0,1-.77-.21,9.26,9.26,0,0,0-1-1A20,20,0,0,0,75.73,13a18.73,18.73,0,0,0-8.3-1.37,19.81,19.81,0,0,0-7.89,2.22,20.5,20.5,0,0,0-6.36,5.2,19.43,19.43,0,0,0-3.79,7.6,20.49,20.49,0,0,0-.21,8c.06.45,0,.52-.38.45-15.36-2.28-28.09-7.78-38.43-19.56-.45-.51-.68-.51-1,.05C4.79,22.4,7,33.29,12.63,38.64c.75.69,1.53,1.43,2.36,2.06a19.23,19.23,0,0,1-7.41-2.06c-.45-.28-.68-.12-.72.39A12.39,12.39,0,0,0,7,41.23,19.74,19.74,0,0,0,19.13,56.94a11.77,11.77,0,0,0,2.47.76c-1.49.32-3,.55-7.28.22-.52-.1-.73.17-.52.69C17,67.33,23.9,69.93,29.07,71.4c.69.12,1.37.12,2.06.29-.05.06-.09.06-.12.12-1.72,2.62-7.67,4.56-10.45,5.53a37.25,37.25,0,0,1-15.84,2c-.85-.12-1-.11-1.26,0s0,.35.24.57c1.08.69,2.18,1.37,3.3,2a52.5,52.5,0,0,0,10.6,4.24c19,5.26,40.48,1.37,54.81-12.81C83.63,62.2,87.57,46.81,87.57,31.42c0-.61.68-.94,1.13-1.26a37.25,37.25,0,0,0,7.44-7.76,2.35,2.35,0,0,0,.5-1.49v-.08C96.63,20.57,96.62,20.66,96.25,20.83Z" transform="translate(-3.36 -11.6)"/></svg>