<svg id="Layer_1" data-name="Layer 1" xmlns="http://www.w3.org/2000/svg" viewBox="0 0 94.66 81.6"><defs><style>.cls-1{fill:#d0ff14;fill-rule:evenodd;}</style></defs><path class="cls-1" d="M96.93,24.39c.7-4,.69-8-1.76-11.12C91.76,9,84.47,8.79,79.5,9.55c-4,.62-17.75,6.67-22.41,21.14,8.26-.63,12.59.6,11.79,9.69-.33,3.83-2.25,8-4.4,12C62,56.94,57.36,66,51.26,59.49c-5.49-5.87-5.07-17.1-6.33-24.57a102.79,102.79,0,0,0-2.81-13.76C40.94,17.45,38.22,13,34.9,12c-3.57-1.05-8,.58-10.57,2.11C16.09,18.94,9.81,25.84,2.67,31.52v.54c1.41,1.35,1.79,3.57,3.87,3.87,4.92.72,9.6-4.59,12.86.94,2,3.36,2.61,7.05,3.88,10.7,1.69,4.83,3,10.1,4.4,15.66,2.35,9.42,5.24,23.5,13.39,27,4.15,1.76,10.39-.6,13.56-2.48,8.56-5.06,15.23-12.41,20.94-19.87C88.63,50.16,95.84,30.12,96.93,24.39Z" transform="translate(-2.67 -9.2)"/></svg>